<mxfile host="65bd71144e">
    <diagram id="9TwPS-F_7MRN20uyAeRd" name="Page-1">
        <mxGraphModel dx="891" dy="764" grid="0" gridSize="10" guides="1" tooltips="1" connect="1" arrows="1" fold="1" page="1" pageScale="1" pageWidth="850" pageHeight="1100" background="#ffffff" math="0" shadow="0">
            <root>
                <mxCell id="0"/>
                <mxCell id="1" parent="0"/>
                <mxCell id="14" style="edgeStyle=orthogonalEdgeStyle;html=1;entryX=0;entryY=0.5;entryDx=0;entryDy=0;" edge="1" parent="1" source="2" target="6">
                    <mxGeometry relative="1" as="geometry"/>
                </mxCell>
                <mxCell id="15" value="&lt;font color=&quot;#000000&quot;&gt;No&lt;/font&gt;" style="edgeLabel;html=1;align=center;verticalAlign=middle;resizable=0;points=[];" vertex="1" connectable="0" parent="14">
                    <mxGeometry x="-0.2236" y="1" relative="1" as="geometry">
                        <mxPoint y="1" as="offset"/>
                    </mxGeometry>
                </mxCell>
                <mxCell id="2" value="CV Client" style="rounded=1;whiteSpace=wrap;html=1;fillColor=#cce5ff;strokeColor=#000000;fontColor=#000000;" vertex="1" parent="1">
                    <mxGeometry x="20" y="85" width="120" height="60" as="geometry"/>
                </mxCell>
                <mxCell id="17" value="" style="edgeStyle=orthogonalEdgeStyle;html=1;" edge="1" parent="1" source="6" target="16">
                    <mxGeometry relative="1" as="geometry"/>
                </mxCell>
                <mxCell id="19" value="" style="edgeStyle=orthogonalEdgeStyle;html=1;" edge="1" parent="1" source="6" target="18">
                    <mxGeometry relative="1" as="geometry"/>
                </mxCell>
                <mxCell id="6" value="user GUID in on route?" style="rhombus;whiteSpace=wrap;html=1;fontFamily=Helvetica;fontSize=12;fontColor=#000000;align=center;strokeColor=#B09500;fillColor=#e3c800;labelBackgroundColor=none;" vertex="1" parent="1">
                    <mxGeometry x="200" y="41" width="200" height="150" as="geometry"/>
                </mxCell>
                <mxCell id="16" value="is the user in onroute?" style="rhombus;whiteSpace=wrap;html=1;fontFamily=Helvetica;fontSize=12;fontColor=#000000;align=center;strokeColor=#B09500;fillColor=#e3c800;" vertex="1" parent="1">
                    <mxGeometry x="200" y="270" width="200" height="150" as="geometry"/>
                </mxCell>
                <mxCell id="25" value="" style="edgeStyle=orthogonalEdgeStyle;html=1;fontColor=#FCFCFC;" edge="1" parent="1" source="18" target="24">
                    <mxGeometry relative="1" as="geometry"/>
                </mxCell>
                <mxCell id="18" value="&lt;div style=&quot;&quot;&gt;&lt;span style=&quot;background-color: initial;&quot;&gt;username in onroute&lt;/span&gt;&lt;/div&gt;&lt;div style=&quot;&quot;&gt;&lt;span style=&quot;background-color: initial;&quot;&gt;for their company&amp;nbsp;&lt;/span&gt;&lt;/div&gt;&lt;div style=&quot;&quot;&gt;&lt;span style=&quot;background-color: initial;&quot;&gt;(based on BCeID user GUID to Co. GUID match)?&lt;/span&gt;&lt;/div&gt;" style="rhombus;whiteSpace=wrap;html=1;fontFamily=Helvetica;fontSize=12;fontColor=#000000;align=center;strokeColor=#B09500;fillColor=#e3c800;labelBackgroundColor=none;" vertex="1" parent="1">
                    <mxGeometry x="440" y="40" width="200" height="150" as="geometry"/>
                </mxCell>
                <mxCell id="23" value="&lt;br&gt;&lt;table style=&quot;caret-color: rgb(0, 0, 0); font-style: normal; font-variant-caps: normal; font-weight: 400; letter-spacing: normal; text-align: start; text-transform: none; word-spacing: 0px; -webkit-text-stroke-width: 0px; text-decoration: none; width: 776.156px;&quot;&gt;&lt;tbody&gt;&lt;tr&gt;&lt;td style=&quot;padding: 0px;&quot;&gt;&lt;div&gt;&lt;font color=&quot;#fcfcfc&quot;&gt;finish&lt;/font&gt;&lt;/div&gt;&lt;/td&gt;&lt;/tr&gt;&lt;/tbody&gt;&lt;/table&gt;&lt;table style=&quot;caret-color: rgb(0, 0, 0); font-style: normal; font-variant-caps: normal; font-weight: 400; letter-spacing: normal; text-align: start; text-transform: none; word-spacing: 0px; -webkit-text-stroke-width: 0px; text-decoration: none; width: 776.156px;&quot;&gt;&lt;tbody&gt;&lt;tr&gt;&lt;td style=&quot;padding: 0px;&quot;&gt;&lt;div&gt;&lt;font color=&quot;#fcfcfc&quot;&gt;invited user added to inviter onRouteBC profile with designated role (GUID is associated)&lt;/font&gt;&lt;/div&gt;&lt;/td&gt;&lt;/tr&gt;&lt;/tbody&gt;&lt;/table&gt;&lt;table style=&quot;caret-color: rgb(0, 0, 0); font-style: normal; font-variant-caps: normal; font-weight: 400; letter-spacing: normal; text-align: start; text-transform: none; word-spacing: 0px; -webkit-text-stroke-width: 0px; text-decoration: none; width: 776.156px;&quot;&gt;&lt;tbody&gt;&lt;tr&gt;&lt;td style=&quot;padding: 0px;&quot;&gt;&lt;div&gt;&lt;font color=&quot;#fcfcfc&quot;&gt;username added to the&amp;nbsp;user profile user for TPS migrated users only&lt;/font&gt;&lt;/div&gt;&lt;/td&gt;&lt;/tr&gt;&lt;/tbody&gt;&lt;/table&gt;" style="text;whiteSpace=wrap;html=1;" vertex="1" parent="1">
                    <mxGeometry x="270" y="420" width="560" height="110" as="geometry"/>
                </mxCell>
                <mxCell id="27" value="" style="edgeStyle=orthogonalEdgeStyle;html=1;fontColor=#000000;" edge="1" parent="1" source="24" target="26">
                    <mxGeometry relative="1" as="geometry"/>
                </mxCell>
                <mxCell id="24" value="&lt;span style=&quot;text-align: start; caret-color: rgb(0, 0, 0);&quot;&gt;directed to welcome to on route finish creating profile&lt;br&gt;&lt;/span&gt;" style="rounded=1;html=1;fillColor=#cce5ff;strokeColor=#36393d;labelBackgroundColor=none;fontColor=#000000;horizontal=1;whiteSpace=wrap;verticalAlign=middle;" vertex="1" parent="1">
                    <mxGeometry x="700" y="85" width="120" height="60" as="geometry"/>
                </mxCell>
                <mxCell id="29" value="" style="edgeStyle=orthogonalEdgeStyle;html=1;fontColor=#000000;" edge="1" parent="1" source="26" target="28">
                    <mxGeometry relative="1" as="geometry"/>
                </mxCell>
                <mxCell id="26" value="&lt;span style=&quot;text-align: start; caret-color: rgb(0, 0, 0);&quot;&gt;complete my information&lt;br&gt;&lt;/span&gt;" style="rounded=1;whiteSpace=wrap;html=1;fillColor=#cce5ff;strokeColor=#36393d;fontColor=#000000;labelBackgroundColor=none;" vertex="1" parent="1">
                    <mxGeometry x="890" y="85" width="120" height="60" as="geometry"/>
                </mxCell>
                <mxCell id="31" value="" style="edgeStyle=orthogonalEdgeStyle;html=1;fontColor=#000000;" edge="1" parent="1" source="28" target="30">
                    <mxGeometry relative="1" as="geometry"/>
                </mxCell>
                <mxCell id="28" value="finish" style="rounded=1;whiteSpace=wrap;html=1;fillColor=#cce5ff;strokeColor=#36393d;fontColor=#000000;labelBackgroundColor=none;" vertex="1" parent="1">
                    <mxGeometry x="1070" y="85" width="120" height="60" as="geometry"/>
                </mxCell>
                <mxCell id="33" value="" style="edgeStyle=orthogonalEdgeStyle;html=1;fontColor=#000000;" edge="1" parent="1" source="30" target="32">
                    <mxGeometry relative="1" as="geometry"/>
                </mxCell>
                <mxCell id="30" value="directed to profile successfully completed page&amp;nbsp;" style="rounded=1;whiteSpace=wrap;html=1;fillColor=#cce5ff;strokeColor=#36393d;fontColor=#000000;labelBackgroundColor=none;" vertex="1" parent="1">
                    <mxGeometry x="1270" y="85" width="120" height="60" as="geometry"/>
                </mxCell>
                <mxCell id="32" value="directed to profile successfully completed page&amp;nbsp;" style="rhombus;whiteSpace=wrap;html=1;fontFamily=Helvetica;fontSize=12;align=center;strokeColor=#B09500;fillColor=#e3c800;fontColor=#000000;aspect=fixed;" vertex="1" parent="1">
                    <mxGeometry x="1452" y="77.5" width="150" height="75" as="geometry"/>
                </mxCell>
            </root>
        </mxGraphModel>
    </diagram>
</mxfile>